<?xml version="1.0" standalone="no"?>
<!DOCTYPE svg PUBLIC "-//W3C//DTD SVG 20010904//EN"
 "http://www.w3.org/TR/2001/REC-SVG-20010904/DTD/svg10.dtd">
<svg version="1.0" xmlns="http://www.w3.org/2000/svg"
 width="310.000000pt" height="310.000000pt" viewBox="0 0 310.000000 310.000000"
 preserveAspectRatio="xMidYMid meet">
<metadata>
Created by potrace 1.14, written by Peter Selinger 2001-2017
</metadata>
<g transform="translate(0.000000,310.000000) scale(0.100000,-0.100000)"
fill="#000000" stroke="none">
<path d="M0 2314 c0 -745 1 -786 18 -779 64 26 76 27 145 15 40 -6 110 -11
157 -11 l85 1 -25 -20 c-58 -47 -75 -63 -57 -57 9 3 17 2 17 -3 0 -5 12 -11
28 -13 l27 -4 -27 -2 c-16 0 -28 -5 -28 -11 0 -18 -55 -37 -127 -44 -76 -6
-90 2 -61 33 11 11 10 12 -2 8 -8 -3 -45 -16 -83 -28 l-67 -23 2 -102 2 -102
41 -6 c45 -7 39 -7 225 -1 209 7 258 11 282 23 13 6 46 15 73 20 28 5 57 11
65 13 12 3 16 -11 18 -78 3 -78 2 -83 -18 -83 -11 0 -20 -4 -20 -10 0 -5 -18
-10 -40 -10 -40 0 -54 15 -25 26 17 7 10 24 -10 24 -7 0 -15 -12 -17 -27 -3
-24 -8 -28 -36 -29 -18 0 -36 -5 -40 -11 -4 -6 -40 -14 -80 -18 -68 -7 -75 -5
-98 16 -13 12 -38 24 -56 26 -31 3 -29 1 21 -27 64 -35 91 -58 91 -76 0 -7 10
-22 21 -33 16 -15 27 -18 45 -11 13 5 36 9 51 8 23 -1 99 11 227 35 5 1 14
-14 19 -33 5 -19 18 -57 29 -84 l20 -48 -59 -59 c-55 -56 -100 -78 -87 -44 4
9 1 15 -8 15 -7 0 -19 9 -26 20 -15 24 -55 18 -116 -16 -68 -39 -75 -35 -72
47 2 65 1 69 -11 45 -8 -14 -37 -38 -66 -52 -44 -22 -49 -23 -34 -7 34 39 16
45 -24 8 -51 -46 -128 -82 -206 -97 -32 -6 -64 -12 -70 -14 -10 -2 -13 -33
-12 -111 l1 -108 24 75 c29 91 29 88 1 92 -12 2 14 10 58 17 44 7 92 16 106
18 19 3 28 0 33 -13 4 -9 3 -20 -1 -23 -4 -3 -9 -25 -11 -48 -1 -30 -10 -50
-28 -68 -14 -14 -28 -25 -31 -25 -4 0 -14 -7 -24 -16 -9 -8 -42 -18 -73 -21
l-56 -6 0 -73 c0 -81 -3 -78 70 -74 19 1 53 5 75 10 26 6 42 5 46 -2 9 -14 74
7 161 53 44 23 49 23 42 4 -7 -18 6 -19 40 -4 19 9 29 9 40 0 24 -20 79 -32
119 -25 l39 6 -6 82 c-6 84 -3 83 29 -6 31 -88 130 -193 159 -169 7 6 15 10
17 8 2 -1 3 0 2 2 -4 6 36 79 47 86 16 10 12 25 -6 25 -14 0 -14 3 -4 15 8 10
21 13 33 9 16 -5 19 -3 13 11 -3 10 -1 24 5 31 6 8 19 29 29 46 9 18 23 34 31
37 12 4 12 2 0 -13 -8 -9 -12 -19 -9 -22 3 -2 13 7 22 21 9 14 12 25 6 25 -6
0 -8 5 -5 10 4 6 11 8 16 5 5 -4 9 -1 9 5 0 14 47 -17 54 -37 3 -8 -2 -27 -13
-41 -10 -15 -22 -38 -26 -51 -6 -21 -5 -23 14 -18 12 3 21 0 21 -6 1 -7 10 -1
20 12 24 28 26 12 5 -29 -9 -17 -23 -30 -33 -29 -10 0 -12 3 -4 6 6 2 12 9 12
14 0 6 -4 8 -9 5 -5 -4 -12 0 -14 6 -4 10 -6 10 -6 1 -1 -7 -5 -13 -11 -13 -5
0 -7 7 -4 15 10 26 -7 17 -43 -23 -19 -20 -32 -29 -29 -20 5 15 3 16 -14 6
-26 -16 -33 -37 -19 -54 6 -8 9 -15 5 -15 -45 -9 -63 -20 -74 -45 -7 -14 -12
-27 -12 -28 0 -8 73 -47 78 -42 3 3 10 -2 17 -11 15 -20 45 -11 45 14 0 9 9
26 19 37 11 12 27 35 38 52 66 113 138 204 116 147 -5 -12 -3 -14 7 -8 10 6
12 4 6 -10 -7 -18 -6 -18 14 0 25 23 26 9 0 -33 -23 -38 -16 -43 12 -7 11 14
24 25 29 25 8 0 0 -18 -45 -99 -5 -9 -45 -43 -90 -76 -74 -56 -81 -64 -84 -99
l-3 -38 132 4 133 3 27 78 c26 77 49 117 49 86 1 -12 2 -12 13 1 7 8 18 16 26
18 8 2 0 -12 -18 -30 -39 -40 -56 -68 -41 -68 6 0 16 11 22 25 6 14 15 25 20
25 16 0 8 -16 -27 -53 -38 -41 -43 -55 -20 -63 8 -4 13 -10 10 -14 -8 -14 198
-10 214 3 11 9 13 9 8 0 -6 -10 125 -12 594 -13 479 0 600 2 597 12 -2 7 -13
17 -24 22 -11 5 -28 22 -37 38 -9 16 -12 26 -6 22 6 -3 9 1 7 12 -2 12 7 23
25 32 15 7 27 20 27 28 0 20 13 18 45 -7 23 -19 26 -28 23 -61 l-4 -40 39 6
c25 4 36 3 32 -4 -3 -6 -10 -8 -15 -5 -10 6 -50 -30 -50 -45 0 -16 167 -13
177 3 11 17 87 41 107 34 10 -4 16 -1 16 8 0 8 -7 15 -15 15 -19 0 -19 19 0
26 13 5 15 83 15 613 l0 607 -45 12 c-25 7 -45 18 -45 25 0 15 34 49 68 66 12
6 22 21 22 31 0 21 -10 26 -26 11 -5 -6 -28 -6 -59 0 -27 5 -73 7 -102 3 -45
-5 -51 -4 -50 12 2 14 -6 18 -33 18 -28 1 -36 5 -38 23 -4 30 33 39 105 24 31
-6 75 -11 97 -11 23 0 56 -4 74 -9 29 -9 32 -8 32 12 0 20 -4 22 -40 19 -31
-3 -40 -1 -40 11 0 16 52 33 70 22 6 -4 10 19 10 65 0 66 -1 70 -19 61 -10 -6
-31 -25 -46 -43 -19 -23 -39 -35 -64 -38 -28 -4 -36 -10 -36 -25 0 -17 -8 -20
-48 -23 -54 -3 -91 14 -102 48 -3 11 -15 20 -25 20 -11 0 -24 9 -30 20 -6 11
-17 20 -25 20 -19 0 -19 9 0 54 24 56 3 103 -52 120 -20 6 -21 4 -16 -33 5
-36 2 -43 -26 -66 -36 -31 -35 -32 32 -105 26 -28 47 -57 47 -64 0 -8 -29 -16
-92 -22 l-93 -10 -40 41 c-23 22 -59 48 -80 59 -74 34 -90 45 -90 58 0 7 -12
14 -27 16 -23 3 -28 -1 -28 -18 0 -16 11 -26 40 -37 48 -19 39 -39 -12 -27
-18 4 -36 7 -39 6 -8 -2 -19 41 -68 258 -22 96 -42 182 -46 191 -5 13 0 15 23
11 18 -2 42 4 63 17 19 12 44 21 56 21 20 0 22 -4 17 -30 -4 -20 -2 -30 5 -30
7 0 9 5 6 10 -3 6 1 10 9 10 9 0 16 -9 16 -20 0 -11 -5 -20 -10 -20 -13 0 -29
-41 -23 -57 14 -36 83 7 118 73 15 28 17 38 7 42 -6 2 -12 8 -12 13 0 8 63 5
165 -7 40 -4 41 -5 37 -39 -4 -32 -1 -36 51 -69 47 -30 145 -76 163 -76 2 0 0
10 -7 21 -10 19 -7 25 17 45 34 28 41 28 86 9 21 -8 39 -10 44 -5 5 5 42 10
82 11 l72 2 0 528 0 529 -548 0 c-402 0 -551 -3 -560 -12 -8 -8 -15 -8 -26 1
-9 7 -40 11 -83 9 l-68 -3 3 -38 c3 -35 1 -38 -20 -35 -19 2 -24 10 -26 41
l-3 37 -297 -2 -297 -3 -15 -43 c-14 -41 -14 -45 4 -57 10 -8 23 -16 29 -18 6
-2 5 -12 -2 -26 -10 -17 -10 -26 -2 -34 9 -9 19 -3 41 20 l30 32 43 -25 44
-24 21 25 c14 16 32 25 52 25 29 0 30 -2 30 -43 0 -24 6 -52 14 -62 13 -18 15
-17 32 16 10 19 23 47 29 64 11 32 42 45 56 23 14 -21 10 -75 -6 -88 -21 -17
-19 -27 9 -45 19 -13 29 -14 46 -5 31 17 44 3 25 -27 -12 -17 -15 -36 -10 -59
4 -26 2 -36 -10 -40 -22 -9 -43 13 -47 49 -3 27 -11 36 -56 59 l-53 28 -25
-28 c-22 -25 -25 -26 -38 -9 -19 24 -43 21 -62 -8 -21 -32 -11 -85 17 -85 20
0 37 -25 25 -37 -10 -10 -76 41 -76 58 0 9 -7 20 -16 23 -41 16 -47 -35 -7
-53 27 -12 27 -13 8 -27 -10 -8 -26 -14 -34 -14 -9 0 -25 -7 -35 -15 -23 -17
-62 -20 -71 -5 -3 6 -19 10 -35 10 -43 0 -49 -38 -8 -53 11 -4 15 -12 12 -22
-10 -26 4 -61 30 -73 21 -9 25 -7 42 24 10 19 28 37 39 40 11 4 28 13 37 21
12 11 28 13 53 9 43 -8 45 -20 6 -36 -16 -6 -38 -21 -48 -32 -17 -19 -17 -19
12 -11 50 14 303 6 399 -12 169 -32 315 -114 331 -186 4 -16 10 -29 15 -29 5
0 12 -20 16 -45 5 -34 3 -50 -9 -63 -8 -9 -18 -32 -22 -49 -3 -18 -12 -33 -19
-33 -7 0 -21 -9 -32 -21 -26 -29 -53 -41 -182 -84 -166 -55 -167 -55 -177
-270 -9 -165 -8 -190 5 -231 7 -19 9 -47 6 -62 -4 -18 -3 -22 2 -13 11 16 21
3 24 -31 3 -34 -32 -76 -67 -83 -110 -20 -324 -8 -451 24 -60 15 -74 16 -60 5
11 -7 24 -14 29 -14 4 0 5 -5 2 -10 -4 -6 -2 -17 5 -25 7 -9 8 -15 0 -20 -5
-3 -10 -12 -10 -18 0 -7 4 -6 10 3 8 13 10 12 10 -2 0 -10 -6 -18 -14 -18 -7
0 -16 -9 -19 -21 -5 -17 -3 -18 11 -7 14 11 15 10 8 -7 -4 -11 -9 -26 -10 -33
-1 -8 -8 -17 -14 -21 -13 -8 -14 -13 -27 -88 -5 -31 -10 -40 -21 -36 -11 4
-12 9 -5 16 6 6 11 25 10 41 0 25 -2 27 -8 12 -4 -11 -15 -20 -24 -22 -10 -1
-15 1 -13 4 2 4 -2 13 -10 20 -11 10 -14 10 -16 0 0 -7 -2 -17 -3 -23 -2 -5
-3 -23 -4 -40 l-2 -30 -15 35 c-10 23 -13 48 -8 74 4 27 3 37 -5 32 -6 -4 -14
0 -17 8 -3 9 -12 16 -19 16 -7 0 -15 9 -18 21 -4 16 -3 18 8 9 10 -8 15 -8 21
1 4 7 3 9 -3 6 -6 -4 -13 2 -16 13 -3 11 -1 23 4 26 5 3 9 14 9 24 0 10 6 25
13 32 18 19 9 115 -11 110 -11 -2 -16 11 -9 23 3 7 -36 34 -50 35 -7 0 -13 -6
-13 -14 0 -9 8 -12 23 -9 20 4 20 4 -3 -9 -25 -14 -25 -13 -30 29 -3 24 -14
51 -25 61 -18 17 -18 16 -2 -10 9 -15 16 -38 15 -52 -3 -32 -18 -23 -18 10 0
23 -2 24 -15 10 -8 -8 -15 -30 -15 -50 0 -31 -25 -74 -37 -62 -2 2 3 46 12 98
10 51 21 131 25 178 5 47 25 163 44 259 37 178 42 214 25 172 -8 -20 -14 -23
-41 -17 -30 6 -47 20 -48 38 0 9 46 21 81 21 25 0 28 5 44 71 10 39 20 77 23
85 4 11 1 12 -13 3 -11 -5 -28 -7 -39 -3 -21 7 -81 -8 -85 -21 -1 -4 -8 -22
-16 -40 -10 -25 -10 -35 -2 -40 9 -6 9 -8 0 -8 -6 0 -19 -3 -29 -7 -16 -6 -17
1 -11 89 3 53 12 109 20 124 8 16 17 46 21 66 5 30 12 39 33 44 18 5 28 3 31
-5 7 -20 52 29 52 56 0 13 4 23 8 23 5 0 14 12 21 27 11 23 10 29 -5 40 -10 8
-25 11 -34 7 -44 -19 -57 -16 -63 14 -3 16 -9 41 -13 56 -5 21 -3 26 13 26 10
0 24 -5 31 -12 16 -16 30 -1 33 37 4 62 2 65 -43 65 -24 0 -52 -7 -62 -15 -11
-8 -30 -15 -43 -15 -27 0 -156 60 -179 83 -22 22 199 206 249 207 9 0 17 7 17
15 0 16 -35 21 -44 6 -7 -11 -95 -35 -103 -28 -3 4 0 13 7 22 11 13 9 15 -14
15 -26 0 -36 -22 -15 -35 7 -5 4 -14 -8 -27 -30 -33 -72 -50 -108 -44 -32 6
-33 8 -30 48 2 30 8 44 21 49 11 4 -14 8 -56 8 -74 0 -75 0 -53 -18 l22 -19
-50 -53 c-59 -64 -72 -57 -62 33 l6 58 -29 0 c-22 0 -34 -7 -46 -27 -23 -40
-65 -76 -77 -68 -6 3 -11 16 -11 29 0 38 -40 66 -93 66 l-47 0 0 -786z m2235
766 c3 -5 8 -46 11 -91 6 -80 6 -81 -18 -77 -16 2 -24 11 -26 27 -2 14 -10 35
-19 47 -12 19 -12 29 -2 63 12 40 39 55 54 31z m548 -26 c10 -10 -12 -44 -28
-44 -15 0 -21 31 -8 43 8 9 28 9 36 1z m-1335 -16 c-7 -19 -38 -22 -38 -4 0
10 9 16 21 16 12 0 19 -5 17 -12z m287 -50 c-3 -13 -9 -33 -12 -45 -3 -15 -13
-23 -25 -23 -15 0 -18 4 -13 18 4 9 12 29 17 45 12 34 44 38 33 5z m982 -8 c3
-12 18 -23 37 -28 26 -7 31 -13 31 -38 0 -41 -37 -46 -62 -7 -10 15 -26 34
-35 41 -10 7 -18 22 -18 33 0 26 40 26 47 -1z m-550 -152 l-2 -93 34 -2 c37
-2 67 -25 57 -42 -11 -17 -73 -14 -80 4 -3 8 -14 15 -24 15 -20 0 -56 33 -46
43 3 3 7 33 8 66 1 42 7 66 20 80 11 12 23 21 27 21 4 0 7 -42 6 -92z m-534
56 c9 -9 -4 -35 -14 -28 -5 3 -9 12 -9 20 0 14 12 19 23 8z m1017 -54 c0 -24
-26 -38 -42 -22 -8 8 -8 15 2 27 18 21 40 19 40 -5z m308 -7 c5 -17 -26 -29
-40 -15 -6 6 -7 15 -3 22 9 14 37 9 43 -7z m-915 -52 c43 -36 -9 -43 -73 -10
-43 22 -46 29 -29 46 12 12 67 -7 102 -36z m-1841 -16 c-4 -36 -18 -46 -29
-20 -4 12 21 55 32 55 0 0 -1 -16 -3 -35z m2638 -18 c0 -40 -23 -75 -53 -79
-16 -2 -23 -11 -27 -34 -9 -52 -42 -88 -84 -88 -19 0 -38 3 -41 6 -12 11 14
45 42 57 17 7 38 30 53 57 27 51 91 124 103 117 4 -2 7 -19 7 -36z m-1345 -96
c-6 -21 -35 -30 -35 -12 0 12 31 43 37 37 3 -2 2 -14 -2 -25z m-60 -11 c7 -23
-1 -40 -19 -40 -8 0 -13 13 -14 30 -1 34 23 42 33 10z m1070 -29 c0 -28 -25
-47 -49 -38 -21 8 -21 43 2 56 27 16 47 8 47 -18z m-735 -30 c13 -26 3 -50
-26 -57 -30 -8 -44 2 -44 30 0 44 50 63 70 27z m684 -84 c12 -34 -1 -61 -33
-65 -23 -4 -28 -17 -10 -27 6 -4 9 -19 8 -33 -2 -15 2 -36 8 -47 6 -11 14 -37
18 -57 6 -31 4 -38 -15 -48 -27 -14 -41 0 -32 32 3 11 -1 24 -9 28 -7 5 -18
32 -25 59 -9 42 -8 54 4 72 10 15 11 24 3 32 -16 16 -14 31 10 61 27 35 60 31
73 -7z m-424 -7 c0 -11 -7 -23 -15 -26 -8 -4 -15 -17 -15 -30 0 -29 -8 -30
-37 -5 -27 22 -29 31 -8 31 9 0 21 11 27 25 14 31 48 34 48 5z m-110 -10 c0
-13 -5 -18 -15 -14 -16 7 -19 17 -8 27 12 13 23 7 23 -13z m351 -52 c24 -30
24 -40 -4 -66 -23 -21 -24 -22 -40 -4 -15 16 -15 34 -1 80 5 19 24 14 45 -10z
m449 -312 c0 -11 -19 -15 -25 -6 -3 5 1 10 9 10 9 0 16 -2 16 -4z m-15 -446
c3 -5 1 -10 -4 -10 -6 0 -11 5 -11 10 0 6 2 10 4 10 3 0 8 -4 11 -10z m-371
-63 c17 -1 30 -5 29 -9 -2 -5 -3 -12 -3 -18 0 -5 -12 -10 -26 -10 -21 0 -25
-4 -21 -20 3 -11 1 -23 -4 -26 -21 -12 -7 -33 26 -40 52 -9 59 -23 39 -86 -18
-56 -36 -78 -66 -78 -13 0 -18 8 -18 28 0 15 -11 81 -25 147 -32 154 -32 149
6 129 17 -9 46 -17 63 -17z m404 6 c2 -8 -5 -13 -17 -13 -12 0 -21 6 -21 16 0
18 31 15 38 -3z m32 -78 c0 -16 -35 -21 -44 -6 -8 12 4 21 26 21 10 0 18 -7
18 -15z m-151 -61 l20 -25 -27 -45 c-30 -50 -42 -55 -42 -20 0 14 -5 37 -10
51 -11 30 2 65 25 65 7 0 23 -12 34 -26z m202 -94 c5 0 9 -7 9 -15 0 -12 -8
-14 -42 -9 -24 4 -48 12 -55 18 -10 9 -17 52 -14 79 1 5 22 -10 47 -32 26 -23
51 -41 55 -41z m209 56 c0 -11 -19 -15 -25 -6 -3 5 1 10 9 10 9 0 16 -2 16 -4z
m-543 -48 c-3 -8 -6 -5 -6 6 -1 11 2 17 5 13 3 -3 4 -12 1 -19z m-1581 -18
c-2 -16 1 -31 6 -32 5 -2 0 -15 -12 -28 -19 -23 -20 -23 -8 -2 10 17 10 24 1
30 -7 4 -11 17 -10 29 0 12 5 19 9 17 4 -3 8 0 8 5 0 6 2 11 5 11 2 0 3 -13 1
-30z m1611 -14 c11 -11 -13 -41 -31 -38 -9 2 -16 -4 -16 -13 0 -9 -9 -15 -24
-15 -12 0 -38 -5 -56 -12 -31 -10 -32 -12 -15 -25 11 -7 37 -13 59 -13 36 0
65 5 154 25 17 4 22 1 22 -15 0 -23 3 -24 30 -8 15 9 24 9 42 -1 18 -9 31 -9
53 -1 24 9 36 7 82 -17 30 -15 56 -30 59 -34 2 -4 -21 -11 -52 -15 -34 -4 -64
-14 -75 -25 -26 -26 -25 -74 3 -93 17 -12 19 -18 9 -30 -7 -8 -27 -18 -44 -22
-17 -3 -38 -11 -47 -16 -11 -7 -37 0 -94 26 -120 55 -118 36 5 -50 94 -66 105
-80 58 -70 -43 8 -102 37 -180 87 -37 24 -70 39 -81 36 -11 -3 -18 0 -18 10 0
11 -7 14 -25 9 l-25 -6 0 104 c0 57 -3 118 -6 136 -6 29 -5 32 12 26 15 -4 31
6 62 37 41 42 45 43 88 37 24 -4 47 -10 51 -14z m-1640 -108 c-3 -8 -6 -5 -6
6 -1 11 2 17 5 13 3 -3 4 -12 1 -19z m-770 -44 c-3 -3 -12 -4 -19 -1 -8 3 -5
6 6 6 11 1 17 -2 13 -5z m338 -224 c-3 -5 -10 -10 -16 -10 -5 0 -9 5 -9 10 0
6 7 10 16 10 8 0 12 -4 9 -10z m312 -22 c-3 -7 -5 -2 -5 12 0 14 2 19 5 13 2
-7 2 -19 0 -25z m1723 -24 c9 -9 9 -14 2 -14 -19 0 -2 -28 19 -33 14 -4 20
-12 17 -28 -5 -38 -30 -44 -93 -24 -40 12 -74 16 -112 12 -46 -5 -54 -3 -49
10 3 8 9 26 12 39 5 19 13 24 38 24 17 1 41 6 54 13 32 18 98 19 112 1z m108
-71 c-5 -29 -26 -25 -42 8 -21 42 -21 42 15 24 18 -10 29 -23 27 -32z m-2214
-168 c-6 -16 -24 -21 -24 -7 0 11 11 22 21 22 5 0 6 -7 3 -15z m36 -109 c-9
-40 -3 -56 18 -50 15 5 15 4 0 -9 -22 -17 -24 -41 -3 -33 8 3 15 1 15 -4 0 -5
-9 -11 -19 -15 -11 -3 -27 -18 -37 -32 -9 -15 -31 -39 -47 -55 -30 -26 -32
-27 -48 -9 -23 24 -14 70 20 98 14 13 20 23 14 23 -22 0 -15 14 27 58 23 23
38 42 35 42 -3 0 -1 10 6 21 16 30 29 7 19 -35z m466 32 c8 11 16 14 22 7 14
-13 -18 -79 -39 -83 -23 -4 -44 55 -27 76 11 13 14 13 22 -1 9 -14 11 -14 22
1z m-402 -34 c9 -24 7 -31 -8 -37 -10 -4 -13 -1 -9 9 3 8 -1 14 -11 14 -19 0
-21 16 -3 23 20 9 25 8 31 -9z m-264 -233 c0 -5 -22 -18 -49 -30 -56 -24 -65
-25 -56 -11 3 6 -2 10 -12 11 -10 0 9 9 42 19 72 22 75 22 75 11z m630 -33 c0
-6 -3 -8 -6 -5 -4 3 -20 -12 -36 -34 -16 -23 -32 -38 -35 -35 -4 3 2 15 11 25
10 11 15 25 11 31 -4 7 2 14 14 17 12 3 21 10 21 15 0 5 5 6 10 3 6 -3 10 -11
10 -17z m2080 -69 c0 -6 -7 -17 -15 -25 -13 -14 -16 -14 -21 1 -4 10 -1 21 7
26 19 12 29 11 29 -2z m-2000 -50 c0 -5 -4 -9 -10 -9 -5 0 -10 7 -10 16 0 8 5
12 10 9 6 -3 10 -10 10 -16z m1923 -11 c3 -13 10 -38 15 -55 10 -30 9 -32 -7
-24 -35 19 -42 38 -32 94 3 16 19 6 24 -15z m-1843 -2 c0 -2 -17 -16 -37 -32
-26 -19 -33 -22 -23 -9 24 33 60 58 60 41z m429 -9 c6 -8 8 -17 4 -20 -3 -4
-2 -7 4 -7 6 0 13 -7 16 -14 4 -10 1 -13 -9 -9 -7 3 -14 0 -14 -5 0 -6 -5 -23
-12 -39 -13 -32 -15 -38 -17 -55 -1 -9 -4 -9 -10 2 -6 8 -7 18 -5 22 3 4 -1 8
-8 8 -9 0 -9 3 2 10 13 8 13 10 -2 10 -9 0 -18 -6 -21 -12 -2 -7 -8 -10 -12
-6 -5 5 -1 16 7 25 8 10 18 26 21 36 4 10 11 16 16 13 5 -3 9 0 8 7 -1 47 10
59 32 34z m1516 -27 c3 -5 2 -10 -4 -10 -5 0 -13 5 -16 10 -3 6 -2 10 4 10 5
0 13 -4 16 -10z m-5 -68 c0 -10 -4 -10 -15 2 -8 8 -15 25 -15 38 l1 23 14 -25
c8 -14 14 -31 15 -38z m-416 15 l29 -24 -19 -26 c-22 -30 -64 -37 -65 -9 0 9
-2 28 -5 41 -4 21 9 40 26 41 3 0 18 -11 34 -23z m-1015 -37 c6 0 11 -8 11
-17 0 -14 -2 -15 -9 -5 -7 11 -9 11 -14 -2 -8 -19 -37 -21 -37 -3 0 7 5 18 12
25 9 9 9 12 0 12 -7 0 -12 -4 -12 -10 0 -5 -6 -10 -14 -10 -8 0 -17 -7 -20
-16 -4 -9 -9 -14 -12 -11 -3 3 -2 12 2 19 5 7 9 17 9 23 0 16 49 23 61 9 6 -8
16 -14 23 -14z m41 6 c0 -3 -4 -8 -10 -11 -5 -3 -10 -1 -10 4 0 6 5 11 10 11
6 0 10 -2 10 -4z m99 -19 c0 -9 -2 -8 -6 1 -3 8 -11 5 -25 -10 -19 -22 -15 -6
5 19 11 14 27 8 26 -10z m-314 3 c3 -5 1 -10 -4 -10 -6 0 -11 5 -11 10 0 6 2
10 4 10 3 0 8 -4 11 -10z m1585 0 c0 -5 -8 -10 -17 -10 -15 0 -16 2 -3 10 19
12 20 12 20 0z"/>
<path d="M996 3078 c-17 -24 -22 -98 -7 -98 8 0 41 87 41 109 0 18 -18 12 -34
-11z"/>
<path d="M872 3059 c-12 -18 -11 -20 5 -17 10 2 19 11 21 21 5 23 -10 21 -26
-4z"/>
<path d="M795 3004 c-19 -47 -19 -51 5 -81 12 -15 18 -34 15 -47 -4 -14 1 -25
15 -34 20 -12 21 -11 19 25 -1 21 5 53 15 71 16 31 16 34 -3 59 -12 14 -18 29
-15 34 3 5 -4 9 -15 9 -14 0 -25 -11 -36 -36z"/>
<path d="M1031 2948 c-5 -13 -5 -25 0 -28 14 -10 16 -103 2 -107 -8 -3 -13 4
-13 16 0 16 -6 21 -25 21 -14 0 -25 6 -25 13 0 6 -9 -8 -21 -32 -11 -25 -16
-48 -11 -53 4 -4 23 -4 42 1 19 5 59 12 88 16 47 6 52 9 52 32 0 14 -9 38 -20
53 -11 16 -23 42 -26 59 -8 36 -31 41 -43 9z"/>
<path d="M694 2930 c3 -14 6 -28 6 -32 0 -5 5 -8 10 -8 15 0 12 24 -6 46 -15
18 -15 18 -10 -6z"/>
<path d="M1180 2823 c1 -36 1 -37 16 -18 17 22 15 46 -3 53 -9 2 -13 -8 -13
-35z"/>
<path d="M1257 2843 c-10 -9 -9 -53 1 -53 14 0 32 23 32 42 0 18 -20 25 -33
11z"/>
<path d="M1105 2739 c-4 -6 -5 -13 -2 -16 7 -7 27 6 27 18 0 12 -17 12 -25 -2z"/>
<path d="M987 2724 c-4 -4 -17 -8 -29 -9 -13 -1 -26 -3 -30 -4 -12 -2 -9 -29
4 -37 15 -9 96 -6 115 5 14 7 13 11 -6 30 -21 21 -42 27 -54 15z"/>
<path d="M1003 2605 c-3 -9 1 -23 9 -33 9 -9 18 -27 21 -39 4 -19 0 -23 -29
-29 -19 -3 -34 -11 -34 -18 0 -21 -68 -66 -99 -66 -24 0 -34 -7 -46 -30 -17
-32 -22 -25 58 -74 21 -13 25 -10 70 41 26 30 47 59 47 64 0 5 12 9 28 9 15 1
47 11 71 24 35 18 40 24 26 29 -12 5 -15 14 -11 32 5 20 2 26 -19 31 -14 3
-32 4 -40 0 -20 -7 -20 27 0 44 13 11 13 15 3 21 -21 14 -48 10 -55 -6z m-68
-215 c8 -13 -13 -40 -31 -40 -8 0 -14 10 -14 25 0 18 5 25 19 25 11 0 23 -5
26 -10z"/>
<path d="M1604 2416 c-30 -8 -40 -16 -38 -28 1 -12 -4 -17 -19 -15 -12 1 -21
-2 -20 -8 2 -13 -47 -13 -67 0 -20 12 -63 12 -72 0 -4 -6 -13 -2 -22 10 -11
14 -18 16 -23 9 -5 -6 -19 -15 -32 -19 -18 -6 -21 -9 -10 -16 11 -7 12 -11 1
-17 -7 -5 -12 -15 -10 -22 2 -7 -4 -15 -12 -17 -11 -3 -11 -2 -3 4 9 6 7 12
-7 21 -13 8 -21 8 -25 1 -5 -6 -15 -5 -30 5 -13 9 -26 12 -29 7 -6 -9 9 -24
34 -35 8 -3 3 -4 -12 -1 -16 3 -28 1 -28 -4 0 -12 44 -23 63 -15 8 3 17 -1 19
-8 4 -9 -5 -13 -28 -13 -19 0 -34 3 -34 7 0 4 -8 8 -17 8 -17 -1 -17 -1 0 -14
21 -16 22 -32 1 -40 -8 -3 -12 -10 -9 -16 3 -5 -2 -10 -11 -10 -10 0 -14 -3
-11 -7 4 -3 2 -12 -4 -19 -7 -9 -5 -18 10 -33 19 -19 19 -20 0 -37 -20 -18
-27 -6 -7 14 9 9 9 12 0 12 -7 0 -12 -5 -12 -11 0 -5 -5 -7 -12 -3 -7 4 -8 3
-4 -5 4 -6 0 -14 -8 -17 -20 -8 -20 -20 0 -28 8 -3 12 -2 9 4 -8 13 1 13 28
-2 29 -15 85 -30 127 -32 19 -2 46 -6 60 -9 25 -7 25 -7 2 5 -22 11 -22 12 15
24 20 7 40 11 45 8 4 -3 8 0 8 5 0 6 5 11 11 11 5 0 7 -4 4 -10 -3 -5 -1 -10
4 -10 6 0 11 5 11 10 0 6 5 10 10 10 6 0 10 -7 10 -15 0 -19 49 -21 56 -2 7
19 44 19 44 0 0 -14 2 -14 19 1 11 10 20 13 22 7 3 -7 14 -5 33 4 15 8 35 15
44 15 8 0 13 3 9 6 -3 4 4 14 16 24 l21 18 -34 1 c-63 2 -88 6 -97 15 -5 5 -2
6 7 1 12 -6 13 -5 3 5 -19 20 -54 24 -47 5 4 -8 10 -15 15 -15 5 0 9 -7 9 -15
0 -9 -9 -15 -22 -14 -13 0 -18 3 -11 6 9 3 7 11 -7 26 -20 20 -20 21 0 39 21
19 40 24 40 9 0 -6 9 -9 20 -8 12 1 18 7 16 14 -6 15 39 17 97 4 21 -5 39 -5
43 0 3 5 -1 9 -8 9 -10 0 -9 3 2 9 8 6 18 7 22 5 4 -3 8 0 8 5 0 6 9 11 20 11
22 0 27 24 8 36 -8 5 -6 10 8 15 16 6 14 8 -10 8 -29 1 -29 1 -11 -19 28 -31
15 -31 -44 1 -30 16 -49 29 -42 29 6 0 11 5 11 11 0 6 -8 8 -19 4 -11 -3 -22
-1 -26 5 -3 5 -1 10 4 10 6 0 11 5 11 10 0 6 -9 10 -20 10 -14 0 -18 5 -13 16
5 15 1 16 -31 10 -26 -5 -36 -4 -31 3 3 6 19 11 34 11 18 0 28 5 28 15 0 8 -3
14 -6 14 -3 -1 -24 -7 -47 -13z m-163 -88 c-17 -6 -29 -5 -38 5 -11 11 -7 12
24 9 35 -4 36 -5 14 -14z m-121 -42 c0 -3 -4 -8 -10 -11 -5 -3 -10 -1 -10 4 0
6 5 11 10 11 6 0 10 -2 10 -4z m24 -41 c17 -13 15 -14 -28 -13 -38 0 -44 3
-35 14 15 18 39 17 63 -1z m-106 -16 c-2 -6 -8 -10 -13 -10 -5 0 -11 4 -13 10
-2 6 4 11 13 11 9 0 15 -5 13 -11z m57 -29 c-3 -5 -11 -10 -16 -10 -6 0 -7 5
-4 10 3 6 11 10 16 10 6 0 7 -4 4 -10z m215 -21 c0 -5 -4 -9 -8 -9 -5 0 -9 7
-9 15 0 8 4 12 9 9 4 -3 8 -9 8 -15z m-75 -18 c-12 -12 -17 -12 -30 -1 -14 12
-18 11 -26 -1 -5 -8 -9 -9 -9 -3 0 17 9 21 45 20 29 -1 32 -3 20 -15z m-185
-100 c0 -5 8 -11 18 -13 14 -3 15 -5 2 -10 -9 -3 -26 3 -39 13 -23 19 -23 19
-2 19 12 0 21 -4 21 -9z"/>
<path d="M1690 2400 c0 -5 4 -10 9 -10 6 0 13 5 16 10 3 6 -1 10 -9 10 -9 0
-16 -4 -16 -10z"/>
<path d="M1186 2392 c-2 -4 0 -14 6 -22 8 -12 9 -12 5 2 -3 9 -1 19 6 22 9 3
9 5 0 5 -6 1 -14 -3 -17 -7z"/>
<path d="M1488 2373 c7 -3 16 -2 19 1 4 3 -2 6 -13 5 -11 0 -14 -3 -6 -6z"/>
<path d="M1765 2360 c3 -5 11 -10 16 -10 6 0 7 5 4 10 -3 6 -11 10 -16 10 -6
0 -7 -4 -4 -10z"/>
<path d="M1096 2335 c4 -9 0 -15 -10 -15 -26 0 -18 -15 9 -16 14 -1 25 2 25 7
0 5 8 9 18 9 15 1 15 2 -2 15 -26 19 -47 19 -40 0z"/>
<path d="M1822 2326 c7 -8 15 -12 17 -11 5 6 -10 25 -20 25 -5 0 -4 -6 3 -14z"/>
<path d="M1860 2329 c0 -5 5 -7 10 -4 6 3 10 8 10 11 0 2 -4 4 -10 4 -5 0 -10
-5 -10 -11z"/>
<path d="M1057 2282 c4 -8 0 -10 -11 -6 -11 4 -16 0 -16 -14 0 -11 -3 -27 -6
-36 -3 -9 -1 -16 5 -16 6 0 11 10 11 23 0 15 9 29 24 37 30 15 61 6 52 -16 -3
-8 -2 -12 4 -9 6 3 10 13 10 21 0 8 4 13 9 9 5 -3 12 -1 15 4 3 5 -18 11 -48
13 -40 2 -52 0 -49 -10z"/>
<path d="M1073 2243 c-22 -8 -14 -23 11 -21 19 2 22 5 14 15 -6 7 -11 13 -12
12 0 0 -7 -3 -13 -6z"/>
<path d="M1066 2183 c-9 -16 -15 -21 -13 -11 7 22 -3 30 -20 17 -9 -9 -13 -8
-13 0 0 6 -7 11 -16 11 -10 0 -7 -7 12 -25 15 -14 38 -25 50 -25 13 0 24 -4
24 -10 0 -5 5 -10 10 -10 18 0 10 19 -11 25 -16 5 -18 9 -8 21 9 11 14 12 19
4 5 -7 9 -4 13 9 8 32 -25 27 -47 -6z"/>
<path d="M1633 2166 c-9 -11 -9 -15 0 -19 7 -3 14 3 14 14 2 22 2 22 -14 5z"/>
<path d="M1016 2113 c-4 -9 -4 -14 0 -10 4 4 14 1 23 -6 14 -11 15 -10 1 8 -8
11 -15 21 -16 23 -1 2 -5 -5 -8 -15z"/>
<path d="M3075 2000 c-20 -22 -20 -22 0 -36 18 -14 20 -13 23 6 2 11 2 27 0
36 -2 14 -6 13 -23 -6z"/>
<path d="M2835 1960 c3 -5 13 -10 21 -10 8 0 12 5 9 10 -3 6 -13 10 -21 10 -8
0 -12 -4 -9 -10z"/>
<path d="M2997 1958 c-21 -11 -47 -66 -47 -98 0 -18 6 -20 53 -20 80 0 97 8
97 41 0 19 -7 32 -22 40 -13 6 -32 20 -43 30 -15 13 -24 15 -38 7z"/>
<path d="M2870 1794 c-16 -40 -13 -47 17 -39 38 9 60 45 28 45 -8 0 -15 5 -15
10 0 20 -21 9 -30 -16z"/>
<path d="M1014 1111 c4 -5 1 -12 -4 -14 -6 -3 -5 -4 2 -3 15 3 23 26 8 26 -6
0 -9 -4 -6 -9z"/>
<path d="M27 1083 c-23 -4 -27 -9 -27 -39 l0 -34 62 0 c95 0 174 -26 225 -75
32 -31 43 -49 43 -72 0 -21 7 -36 24 -47 24 -15 25 -15 31 14 6 29 -12 77 -44
114 -21 24 -80 54 -160 81 -69 23 -91 45 -45 45 15 0 24 3 21 7 -8 8 -90 11
-130 6z"/>
<path d="M195 1060 c28 -12 37 -12 30 0 -3 6 -16 10 -28 9 -21 0 -21 -1 -2 -9z"/>
<path d="M430 1050 c0 -5 5 -10 10 -10 6 0 10 5 10 10 0 6 -4 10 -10 10 -5 0
-10 -4 -10 -10z"/>
<path d="M360 1040 c0 -5 5 -10 10 -10 6 0 10 5 10 10 0 6 -4 10 -10 10 -5 0
-10 -4 -10 -10z"/>
<path d="M2 830 c0 -14 2 -19 5 -12 2 6 2 18 0 25 -3 6 -5 1 -5 -13z"/>
<path d="M130 470 c0 -5 4 -10 9 -10 6 0 13 5 16 10 3 6 -1 10 -9 10 -9 0 -16
-4 -16 -10z"/>
<path d="M946 395 c-9 -26 -7 -32 5 -12 6 10 9 21 6 23 -2 3 -7 -2 -11 -11z"/>
<path d="M445 280 c-3 -5 -2 -10 4 -10 5 0 13 5 16 10 3 6 2 10 -4 10 -5 0
-13 -4 -16 -10z"/>
<path d="M295 260 c-3 -5 1 -10 9 -10 9 0 16 5 16 10 0 6 -4 10 -9 10 -6 0
-13 -4 -16 -10z"/>
<path d="M1057 213 c-4 -3 -7 -11 -7 -17 0 -6 5 -5 12 2 6 6 9 14 7 17 -3 3
-9 2 -12 -2z"/>
<path d="M0 90 c0 -49 4 -70 13 -70 8 0 7 -4 -3 -10 -10 -7 13 -10 79 -9 l95
2 -32 28 c-40 36 -52 36 -52 3 0 -15 -4 -23 -11 -19 -6 4 -7 19 -4 37 6 23 4
29 -6 23 -9 -6 -11 -3 -6 9 4 11 1 19 -11 22 -25 8 -61 26 -39 20 22 -7 22 -4
-3 17 -20 17 -20 16 -20 -53z"/>
<path d="M680 132 c0 -6 5 -12 11 -14 9 -3 9 -9 0 -25 -14 -28 -14 -66 1 -81
7 -7 38 -12 69 -12 l58 0 -22 53 c-12 28 -26 57 -33 64 -15 16 -84 28 -84 15z"/>
</g>
</svg>
